<svg xmlns="http://www.w3.org/2000/svg" width="48" height="48" fill="none" viewBox="0 0 48 48">
  <mask id="a" fill="#fff">
    <path d="M28.312 23.645a1.4 1.4 0 0 1-.663-.173v.003c0 .379-.148.734-.415 1a1.397 1.397 0 0 1-1.673.237 1.403 1.403 0 0 1-1.407 1.334 1.413 1.413 0 0 1-1.407-1.333 1.42 1.42 0 0 1-.767.174c-.74-.048-1.32-.688-1.32-1.456v-6.366l-.725 1.256a1.56 1.56 0 0 1-2.125.571 1.27 1.27 0 0 1-.595-.775 1.265 1.265 0 0 1 .128-.968l2.517-4.36.108-.242c.04-.09.074-.181.106-.273C20.79 10.254 22.561 9 24.697 9c2.773 0 5.03 2.447 5.03 5.455v7.774c0 .378-.147.734-.414 1.001a1.407 1.407 0 0 1-1.001.415ZM24.697 9.752c-1.836 0-3.299 1.037-3.914 2.773-.039.11-.08.22-.128.328-.139.311-.139.311-.178.356l-.005-.004c-.194.365-.769 1.361-2.478 4.32a.52.52 0 0 0 .19.715.824.824 0 0 0 1.1-.295l1.427-2.472a.376.376 0 0 1 .702.188v7.77c0 .367.276.683.616.706a.658.658 0 0 0 .71-.662v-5.081a.376.376 0 0 1 .752 0v6.236a.664.664 0 0 0 1.327 0v-6.236a.376.376 0 1 1 .752 0v5.081a.664.664 0 0 0 1.327 0v-5.081a.376.376 0 1 1 .752 0v3.835a.664.664 0 0 0 1.326 0v-7.774c0-2.593-1.92-4.703-4.278-4.703Z"/>
  </mask>
  <path fill="#4CAF4F" d="M28.312 23.645a1.4 1.4 0 0 1-.663-.173v.003c0 .379-.148.734-.415 1a1.397 1.397 0 0 1-1.673.237 1.403 1.403 0 0 1-1.407 1.334 1.413 1.413 0 0 1-1.407-1.333 1.42 1.42 0 0 1-.767.174c-.74-.048-1.32-.688-1.32-1.456v-6.366l-.725 1.256a1.56 1.56 0 0 1-2.125.571 1.27 1.27 0 0 1-.595-.775 1.265 1.265 0 0 1 .128-.968l2.517-4.36.108-.242c.04-.09.074-.181.106-.273C20.79 10.254 22.561 9 24.697 9c2.773 0 5.03 2.447 5.03 5.455v7.774c0 .378-.147.734-.414 1.001a1.407 1.407 0 0 1-1.001.415ZM24.697 9.752c-1.836 0-3.299 1.037-3.914 2.773-.039.11-.08.22-.128.328-.139.311-.139.311-.178.356l-.005-.004c-.194.365-.769 1.361-2.478 4.32a.52.52 0 0 0 .19.715.824.824 0 0 0 1.1-.295l1.427-2.472a.376.376 0 0 1 .702.188v7.77c0 .367.276.683.616.706a.658.658 0 0 0 .71-.662v-5.081a.376.376 0 0 1 .752 0v6.236a.664.664 0 0 0 1.327 0v-6.236a.376.376 0 1 1 .752 0v5.081a.664.664 0 0 0 1.327 0v-5.081a.376.376 0 1 1 .752 0v3.835a.664.664 0 0 0 1.326 0v-7.774c0-2.593-1.92-4.703-4.278-4.703Z"/>
  <path fill="#4CAF4F" d="M28.312 23.645V22.31h4.71l-4.012 2.47-.698-1.136Zm-.663-.173h-1.334v-2.228l1.964 1.053-.63 1.175Zm-.415 1.004-.943-.943.002-.001.941.944Zm-1.672.237-1.331-.078.122-2.098 1.846 1.005-.637 1.171Zm-.406.918.943.942-.943-.942Zm-2.409-.918-.634-1.173 1.841-.995.124 2.089-1.33.079Zm-.767.174-.086 1.33h-.001l.087-1.33Zm-1.32-7.822-1.154-.667 2.488-4.31v4.977H20.66Zm-.725 1.256-1.156-.665.002-.002 1.154.667Zm-2.125.571-.663 1.157-.006-.003.669-1.154Zm-.595-.775 1.288-.346v.002l-1.288.344Zm.128-.968-1.154-.669.385-.665h.77v1.334Zm2.517-4.36 1.214.55-.026.059-.032.055-1.156-.664Zm.108-.242-1.219-.541 1.219.541Zm.106-.273 1.257.445-1.257-.445Zm9.653 2.18h-1.334 1.334Zm0 7.775h1.333-1.333Zm-.414 1.001.944.942-.001.001-.943-.943Zm-1.001.415v1.333H23.6l4.012-2.469.699 1.136ZM24.697 9.752V8.42h1.767l-.485 1.7-1.282-.367Zm-3.914 2.773 1.257.445v.003l-1.257-.448Zm-.128.328 1.218.542v.001l-1.218-.543Zm-.178.356 1.004.877-.872.999-1.003-.867.871-1.009Zm-.005-.004-1.178-.625.783-1.478 1.267 1.094-.872 1.009Zm-2.478 4.32 1.155.667-1.155-.667Zm-.053.397-1.287.347-.001-.004 1.288-.343Zm.244.318-.664 1.156-.003-.001.667-1.155Zm1.098-.295-1.156-.664.002-.003 1.154.667Zm1.428-2.472-1.155-.666.001-.002 1.154.668Zm.423-.174-.345 1.288-.003-.001.348-1.287Zm.895 8.838-.07 1.331h-.017l.087-1.331Zm.516-.193.943.943v.001l-.943-.944Zm.946-5.55h1.334-1.334Zm0 6.236h-1.333 1.333Zm1.133.47.944.942-.002.002-.942-.944Zm.946-6.706h1.334-1.334Zm0 5.023h-1.333 1.333Zm1.133.527.942.944h-.001l-.941-.944Zm.946-5.55h1.334-1.334Zm0 3.835h-1.334 1.334Zm1.132.47.943.943h-.001l-.942-.943Zm.194-.47H27.64h1.334Zm0-7.774h1.333-1.333Zm-4.278-4.703v1.334h-1.768l.486-1.7 1.282.366Zm3.615 15.226a2.73 2.73 0 0 1-1.293-.33l1.26-2.351a.12.12 0 0 0 .032.014c.004 0 .003 0 0 0v2.667Zm.67-1.506v.003h-2.667v-.003h2.667Zm0 .003c0 .731-.287 1.427-.806 1.945l-1.883-1.888a.073.073 0 0 0 .017-.024.082.082 0 0 0 .005-.033h2.667Zm-.805 1.944a2.74 2.74 0 0 1-1.944.805v-2.667a.083.083 0 0 0 .032-.006.081.081 0 0 0 .026-.018l1.886 1.886Zm-1.944.805a2.73 2.73 0 0 1-1.309-.34l1.275-2.342c.018.01.029.013.033.014.004.001.004.001.001.001v2.667Zm.66-1.433a2.736 2.736 0 0 1-.794 1.782l-1.887-1.884a.045.045 0 0 0 .01-.015.11.11 0 0 0 .009-.039l2.662.156Zm-.794 1.783a2.74 2.74 0 0 1-1.945.805v-2.667a.084.084 0 0 0 .033-.006.078.078 0 0 0 .026-.018l1.886 1.886Zm-1.945.805a2.747 2.747 0 0 1-2.738-2.587l2.662-.158a.086.086 0 0 0 .05.073.065.065 0 0 0 .026.005v2.667Zm-.773-1.493a2.75 2.75 0 0 1-1.487.332l.171-2.661.01-.002a.154.154 0 0 0 .038-.015l1.268 2.346Zm-1.488.332c-1.48-.097-2.566-1.356-2.566-2.787h2.667c0 .045.016.08.037.103.02.022.033.023.036.023l-.174 2.66Zm-2.566-2.787v-6.366h2.667v6.366h-2.667Zm2.488-5.7-.725 1.256-2.31-1.333.726-1.256 2.31 1.333Zm-.724 1.254a2.892 2.892 0 0 1-2.505 1.448v-2.667a.226.226 0 0 0 .193-.11l2.312 1.329Zm-2.505 1.448c-.504 0-1-.133-1.44-.384l1.326-2.314c.036.02.076.03.114.03v2.668Zm-1.445-.387a2.603 2.603 0 0 1-1.214-1.585l2.576-.688a.064.064 0 0 0-.025-.034l-1.337 2.307Zm-1.214-1.583a2.6 2.6 0 0 1 .262-1.983l2.308 1.337a.061.061 0 0 0 .007-.022c.001-.01 0-.02-.001-.024l-2.576.692Zm1.416-2.648c-.654.172-1.143.648-1.147.654l-.004.006v.002l-.001.001.005-.009c.004-.007.01-.019.02-.034l.075-.13a3025.07 3025.07 0 0 0 1.101-1.908l1.311-2.271 2.313 1.327-1.314 2.277-.831 1.44-.271.469-.076.13-.02.035-.006.01a.088.088 0 0 1-.002.004s0 .002-.002.003a.226.226 0 0 0-.004.007c-.003.006-.493.483-1.147.654v-2.667Zm1.302-3.576.104-.233 2.437 1.083c-.04.092-.092.207-.112.25l-2.429-1.1Zm.104-.233c.019-.042.04-.095.069-.178l2.513.891a5.09 5.09 0 0 1-.145.37l-2.437-1.083Zm.069-.178c.903-2.549 3.176-4.161 5.879-4.161v2.666c-1.57 0-2.838.897-3.366 2.386l-2.513-.89Zm5.879-4.161c3.61 0 6.363 3.147 6.363 6.788h-2.666c0-2.375-1.76-4.122-3.697-4.122V7.667Zm6.363 6.788v7.774h-2.666v-7.774h2.666Zm0 7.774c0 .731-.287 1.426-.803 1.943l-1.888-1.884a.082.082 0 0 0 .019-.026.084.084 0 0 0 .006-.033h2.666Zm-.804 1.944a2.74 2.74 0 0 1-1.944.805v-2.667a.084.084 0 0 0 .032-.005.08.08 0 0 0 .026-.018l1.886 1.885Zm-2.643-1.664 1.397 2.271-1.397-2.27Zm-2.916-11.424c-1.268 0-2.23.679-2.657 1.885l-2.514-.89c.803-2.266 2.768-3.661 5.17-3.661v2.666Zm-2.658 1.888a5.921 5.921 0 0 1-.166.422l-2.436-1.084a2.93 2.93 0 0 0 .09-.234l2.512.896Zm-.166.423c-.061.137-.112.253-.151.331a1.711 1.711 0 0 1-.121.207 1.473 1.473 0 0 1-.12.152l-2.008-1.754c.003-.004.002-.003 0 0a.836.836 0 0 0-.07.091 1.04 1.04 0 0 0-.048.077l-.019.035.004-.008a3.625 3.625 0 0 0 .052-.115l.045-.102 2.436 1.086Zm-2.267.822-.005-.004 1.743-2.018.005.004-1.743 2.018Zm2.044-.389c-.208.394-.804 1.425-2.501 4.363l-2.31-1.334c1.721-2.98 2.276-3.94 2.455-4.278l2.356 1.249Zm-2.502 4.364a.813.813 0 0 0 .082-.613l-2.577.685c-.127-.477-.06-.98.187-1.408l2.308 1.336Zm.08-.618a.811.811 0 0 0-.377-.49l-1.333 2.31a1.855 1.855 0 0 1-.864-1.126l2.575-.694Zm-.379-.491a.53.53 0 0 0-.401-.06.535.535 0 0 0-.321.257l2.313 1.328a2.157 2.157 0 0 1-2.92.787l1.329-2.312Zm-.72.194 1.427-2.471 2.31 1.333-1.428 2.472-2.31-1.334Zm1.428-2.473a1.708 1.708 0 0 1 1.925-.793l-.696 2.574a.959.959 0 0 0 1.078-.444l-2.307-1.337Zm1.922-.794a1.71 1.71 0 0 1 1.267 1.65h-2.667c0 .434.29.813.71.926l.69-2.576Zm1.267 1.65v7.77h-2.667v-7.77h2.667Zm0 7.77a.599.599 0 0 0-.149-.395.697.697 0 0 0-.48-.23l-.175 2.661c-1.123-.074-1.863-1.051-1.863-2.035h2.667Zm-.646-.626a.667.667 0 0 0-.497.196l1.884 1.887a2 2 0 0 1-1.528.58l.14-2.663Zm-.497.197a.675.675 0 0 0-.197.473h2.666c0 .53-.207 1.036-.584 1.412l-1.885-1.886Zm-.197.473v-5.081h2.666v5.081h-2.666Zm0-5.081c0-.944.765-1.71 1.71-1.71v2.667a.957.957 0 0 0 .956-.957h-2.666Zm1.71-1.71a1.71 1.71 0 0 1 1.709 1.71h-2.667c0 .529.43.957.957.957v-2.667Zm1.709 1.71v6.236h-2.667v-6.236h2.667Zm0 6.236c0-.37-.3-.67-.67-.67v2.667a1.997 1.997 0 0 1-1.997-1.997h2.667Zm-.67-.67a.673.673 0 0 0-.473.196l1.884 1.888a1.994 1.994 0 0 1-1.412.583V23.96Zm-.475.198a.673.673 0 0 0-.196.472h2.667c0 .53-.207 1.035-.583 1.412l-1.888-1.884Zm-.196.472v-6.236h2.667v6.236h-2.667Zm0-6.236c0-.944.765-1.71 1.71-1.71v2.667c.529 0 .957-.43.957-.957h-2.667Zm1.71-1.71c.944 0 1.71.765 1.71 1.71h-2.667c0 .529.429.957.957.957v-2.667Zm1.71 1.71v5.023h-2.667v-5.023h2.667Zm0 5.023v.058h-2.667v-.058h2.666Zm0 .058a.67.67 0 0 0-.67-.67v2.666a1.997 1.997 0 0 1-1.997-1.996h2.666Zm-.67-.67a.673.673 0 0 0-.472.194l1.882 1.89a1.994 1.994 0 0 1-1.41.582v-2.666ZM25.76 23a.676.676 0 0 0-.198.475h2.667a1.99 1.99 0 0 1-.585 1.412L25.76 23Zm-.198.475v-5.081h2.667v5.081h-2.667Zm0-5.081c0-.944.765-1.71 1.71-1.71v2.667a.957.957 0 0 0 .957-.957h-2.667Zm1.71-1.71c.944 0 1.71.765 1.71 1.71h-2.667c0 .529.429.957.957.957v-2.667Zm1.71 1.71-.001 3.835h-2.667v-3.835h2.668Zm-.001 3.835a.67.67 0 0 0-.67-.67v2.667a1.997 1.997 0 0 1-1.997-1.997h2.667Zm-.67-.67a.674.674 0 0 0-.473.196l1.884 1.888c-.375.374-.88.583-1.411.583v-2.667Zm-.474.197a.674.674 0 0 0-.197.473h2.667c0 .528-.207 1.035-.584 1.413l-1.886-1.886Zm-.197.473v-7.774h2.667v7.774H27.64Zm0-7.774c0-1.978-1.438-3.37-2.944-3.37V8.42c3.211 0 5.611 2.828 5.611 6.036h-2.666Zm-4.226-5.069 2.564.732-2.564-.732Z" mask="url(#a)"/>
  <path fill="#4CAF4F" stroke="#4CAF4F" stroke-width="1.333" d="m11.963 26.214-.075-.04-.14.252a.842.842 0 0 0 .078.035l.137-.247Zm15.863 1.862h.002l.007.007-.01-.007Z"/>
</svg>
