<svg xmlns="http://www.w3.org/2000/svg" width="442" height="434" fill="none" viewBox="0 0 442 434">
  <path fill="#263238" d="M376.369 433.13c0 .145-71.768.269-160.269.269s-160.3-.124-160.3-.269c0-.144 71.758-.268 160.3-.268 88.542 0 160.269.134 160.269.268Z"/>
  <path fill="#4CAF4F" d="M306.441 306.606c-15.968-11.152-19.586-31.853-18.955-50.467.103-3.101-.238-6.387 1.24-9.105 1.478-2.719 4.93-4.589 7.71-3.287 2.305 1.085 3.307 3.772 4.599 5.994a18.15 18.15 0 0 0 7.287 6.956c1.974 1.034 4.423 1.654 6.377.579 2.687-1.478 2.997-5.168 2.976-8.268 0-5.768-.034-11.528-.103-17.281a28.755 28.755 0 0 1 .93-9.178c.961-2.935 3.1-5.653 6.025-6.48 2.925-.827 6.574.879 7.235 3.896.114 1.279.145 2.563.093 3.845.083 1.292.682 2.708 1.891 3.101 1.21.392 2.471-.507 3.401-1.416 3.183-3.101 5.353-7.142 7.369-11.131 2.015-3.99 3.989-8.093 6.883-11.493 2.894-3.4 6.894-6.098 11.369-6.356 4.475-.259 9.136 2.491 10.252 6.831 1.117 4.341-1.416 8.775-4.134 12.299a69.088 69.088 0 0 1-14.355 13.695 5.615 5.615 0 0 0-2.408 2.573c-.672 2.067 1.281 4.134 3.317 4.785 2.305.765 4.806.527 7.235.817 2.429.289 5.012 1.343 5.932 3.617 1.261 3.163-1.385 6.47-3.979 8.64a59.32 59.32 0 0 1-17.487 10.098c-2.274.827-4.661 1.561-6.501 3.152-1.84 1.592-2.935 4.372-1.829 6.553 1.106 2.18 3.948 2.873 6.335 2.429 2.388-.445 4.506-1.726 6.78-2.584 4.248-1.602 9.726-1.313 12.402 2.356a9.766 9.766 0 0 1 1.034 8.651 22.543 22.543 0 0 1-4.682 7.637 59.558 59.558 0 0 1-25.487 17.808c-9.849 3.411-18.975 4.341-28.763.755"/>
  <path fill="#263238" d="M368.473 199.068s-.093.103-.3.289l-.92.816c-.806.724-1.994 1.778-3.493 3.173a115.345 115.345 0 0 0-11.803 12.744c-2.305 2.863-4.692 6.108-7.235 9.632a264.179 264.179 0 0 0-7.772 11.369 140.494 140.494 0 0 0-7.617 13.208c-1.199 2.367-2.253 4.837-3.338 7.359l-3.204 7.7a284.223 284.223 0 0 0-11.017 29.734 138.531 138.531 0 0 0-5.168 25.353 100.768 100.768 0 0 0-.289 17.456c.165 2.067.32 3.648.465 4.723.062.517.103.931.144 1.23v.424a2.244 2.244 0 0 1-.093-.413c-.051-.3-.113-.703-.196-1.22-.186-1.034-.382-2.666-.568-4.734a96.041 96.041 0 0 1 .103-17.507 136.193 136.193 0 0 1 5.054-25.467 277.52 277.52 0 0 1 10.986-29.806l3.287-7.669c1.085-2.512 2.15-5.003 3.359-7.38a138.303 138.303 0 0 1 7.679-13.239c2.646-4.134 5.312-7.876 7.824-11.369 2.511-3.493 4.94-6.759 7.234-9.612a110.01 110.01 0 0 1 11.958-12.65 133.301 133.301 0 0 1 3.576-3.101l.961-.775c.118-.102.246-.192.383-.268Z"/>
  <path fill="#263238" d="M328.992 250.062a6.425 6.425 0 0 1-.3-1.313c-.165-.858-.351-2.067-.568-3.638-.444-3.1-.899-7.348-1.385-12.051a285.955 285.955 0 0 0-1.488-12.03c-.238-1.53-.445-2.76-.589-3.617a5.594 5.594 0 0 1-.176-1.344c.178.414.306.848.382 1.292.228.847.486 2.067.776 3.607.589 3.101 1.167 7.317 1.653 12.03.486 4.713.899 8.847 1.22 12.061.155 1.447.289 2.677.393 3.659.08.443.108.894.082 1.344Zm39.77-7.421a8.202 8.202 0 0 1-1.529.186c-1.034.093-2.501.217-4.32.424-3.638.393-8.641 1.116-14.129 2.15a232.555 232.555 0 0 0-13.963 3.1c-1.767.455-3.193.868-4.134 1.147a7.514 7.514 0 0 1-1.55.372c.478-.24.976-.437 1.488-.589a75.916 75.916 0 0 1 4.134-1.323c3.525-1.033 8.455-2.263 13.963-3.317a140.536 140.536 0 0 1 14.108-1.964 68.473 68.473 0 0 1 4.341-.238 7.983 7.983 0 0 1 1.591.052Zm-57.03 51.573c-.11-.15-.2-.313-.268-.486l-.683-1.436c-.589-1.251-1.384-3.101-2.335-5.364-1.923-4.548-4.372-10.914-6.977-17.984-2.604-7.069-5.002-13.436-6.821-18.035-.889-2.232-1.623-4.062-2.17-5.426l-.579-1.478a1.978 1.978 0 0 1-.165-.537c.11.149.2.313.268.486l.682 1.436a177.654 177.654 0 0 1 2.336 5.364c1.923 4.548 4.372 10.914 6.976 17.984 2.605 7.069 5.003 13.435 6.822 18.035.889 2.232 1.622 4.061 2.16 5.426.238.589.434 1.033.589 1.478.08.17.136.351.165.537Z"/>
  <path fill="#263238" d="M364.525 277.192a2.202 2.202 0 0 1-.527.217l-1.53.517-5.653 1.829c-4.775 1.55-11.369 3.762-18.604 6.201-7.234 2.439-13.859 4.61-18.665 6.057a216.704 216.704 0 0 1-5.705 1.664l-1.561.403a2.708 2.708 0 0 1-.558.113c.165-.095.343-.168.527-.217l1.53-.516 5.653-1.83c4.775-1.55 11.369-3.762 18.604-6.201 7.234-2.439 13.849-4.61 18.655-6.056a207.897 207.897 0 0 1 5.715-1.664l1.561-.404c.181-.057.368-.095.558-.113Z"/>
  <path fill="#4CAF4F" d="m342.986 26.49-5.323 1.901-2.284-6.956C331.183 8.61 317.809 1.798 305.521 6.13c-12.289 4.33-18.831 18.397-14.635 31.223l2.284 6.955-5.343 1.912a8.495 8.495 0 0 0-4.982 10.625l14.811 45.258a7.96 7.96 0 0 0 1.501 2.803 7.975 7.975 0 0 0 5.533 2.868 7.969 7.969 0 0 0 3.156-.39l55.159-19.73a8.538 8.538 0 0 0 5.034-10.728l-14.821-45.258a7.964 7.964 0 0 0-7.082-5.602 7.966 7.966 0 0 0-3.15.424Zm-42.044 7.234a13.635 13.635 0 0 1 8.02-17.105 12.777 12.777 0 0 1 16.361 8.382l2.274 6.956-24.381 8.723-2.274-6.956Zm31.006 40.163 3.783 11.555a.942.942 0 0 1-.589 1.157l-5.302 1.891a.85.85 0 0 1-1.034-.558l-3.814-11.503a10.34 10.34 0 0 1-9.301-7.234 10.864 10.864 0 0 1 6.397-13.622 10.182 10.182 0 0 1 13.033 6.676 11.035 11.035 0 0 1-3.163 11.669l-.01-.031Z"/>
  <path fill="#263238" d="M337.426 28.267c0 .145-9.87 3.855-22.149 8.268-12.278 4.413-22.293 7.958-22.345 7.855-.051-.103 9.871-3.845 22.159-8.268 12.289-4.424 22.283-7.99 22.335-7.855Zm11.72 1.902c.045.09.083.183.114.279.082.206.175.475.299.806l1.106 3.1 3.969 11.555c1.654 4.9 3.628 10.708 5.819 17.157 1.033 3.235 2.253 6.604 3.39 10.149.608 1.827.871 3.751.775 5.674a7.622 7.622 0 0 1-.837 2.863 7.893 7.893 0 0 1-1.954 2.305 18.606 18.606 0 0 1-5.25 2.677l-5.323 1.912-10.077 3.607-17.063 6.077-11.524 4.051-3.101 1.034-.826.268a.879.879 0 0 1-.279.073s.082 0 .258-.124l.806-.321 3.101-1.168 11.462-4.216 17.032-6.202 10.056-3.637 5.323-1.923a17.692 17.692 0 0 0 5.095-2.594 7.35 7.35 0 0 0 1.819-2.14 6.784 6.784 0 0 0 .775-2.656 14.853 14.853 0 0 0-.744-5.467c-1.116-3.514-2.294-6.914-3.359-10.15-2.149-6.459-4.134-12.288-5.705-17.187-1.571-4.899-2.894-8.836-3.803-11.606-.434-1.354-.765-2.408-1.034-3.173l-.248-.827a.977.977 0 0 1-.072-.196Z"/>
  <path fill="#263238" d="M320.042 15.916s-.548-.268-1.561-.682a13.765 13.765 0 0 0-4.516-.91 15.502 15.502 0 0 0-6.677 1.262 14.884 14.884 0 0 0-6.315 5.28 13.968 13.968 0 0 0-2.428 7.845 24.155 24.155 0 0 0 1.033 6.77c.537 1.881 1.096 3.38 1.468 4.423.219.53.399 1.076.537 1.633a9.081 9.081 0 0 1-.734-1.56c-.424-1.034-1.033-2.501-1.633-4.393a23.492 23.492 0 0 1-1.188-6.873 14.167 14.167 0 0 1 2.48-8.144 15.118 15.118 0 0 1 6.563-5.436 15.38 15.38 0 0 1 6.873-1.178c1.579.08 3.131.448 4.579 1.085a8.5 8.5 0 0 1 1.116.62c.147.065.283.152.403.258Zm.475 40.442c.165-.1.338-.186.517-.258a10.242 10.242 0 0 1 1.602-.569c.871-.257 1.77-.41 2.677-.454a9.07 9.07 0 0 1 3.627.547c2.646.93 5.075 3.628 6.274 7.235a10.417 10.417 0 0 1 0 5.932 13.44 13.44 0 0 1-3.328 5.571l.062-.279c1.375 3.773 2.873 7.865 4.424 12.134l.093.258-.259.093-2.367.786-5.167 1.726-.259.082-.082-.258c-1.416-4.279-2.967-8.268-4.134-12.185l.227.175a10.336 10.336 0 0 1-5.54-2.18 12.508 12.508 0 0 1-3.462-4.135 9.448 9.448 0 0 1-1.096-4.65 11.222 11.222 0 0 1 4.331-8.537 6.573 6.573 0 0 1 1.788-1.034c-.584.347-1.15.723-1.695 1.127a10.991 10.991 0 0 0-3.194 4.537 9.774 9.774 0 0 0 .321 8.34 12.132 12.132 0 0 0 3.379 3.97 9.84 9.84 0 0 0 5.282 2.066h.175l.052.155c1.137 3.845 2.698 7.865 4.134 12.165l-.341-.165 5.168-1.726 2.356-.796-.165.351c-1.54-4.268-3.028-8.371-4.393-12.144v-.155l.124-.124a13.161 13.161 0 0 0 3.266-5.343 9.997 9.997 0 0 0 0-5.674c-1.126-3.473-3.452-6.108-5.974-7.039a8.877 8.877 0 0 0-3.503-.589 11.81 11.81 0 0 0-2.646.362c-1.54.383-2.263.734-2.274.682Z"/>
  <path fill="#455A64" d="m288.571 354.779-103.239-.476a22.502 22.502 0 0 1-22.376-22.593l1.096-258.805a22.48 22.48 0 0 1 22.593-22.386l103.228.475a22.502 22.502 0 0 1 22.386 22.583l-1.095 258.795a22.497 22.497 0 0 1-22.593 22.407Z"/>
  <path fill="#fff" d="M289.718 59.893h-20.009a4.968 4.968 0 0 0-4.536 3.154 4.987 4.987 0 0 0-.342 1.91v3.628a4.96 4.96 0 0 1-4.878 5.054l-39.006-.176a4.983 4.983 0 0 1-4.847-5.106V64.73a4.982 4.982 0 0 0-4.837-5.106h-7.038l-17.518-.083a15.753 15.753 0 0 0-15.844 15.596l-1.034 252.615a15.735 15.735 0 0 0 4.559 11.151 15.737 15.737 0 0 0 11.109 4.662l103.022.475a15.747 15.747 0 0 0 15.824-15.678l1.033-252.615a15.76 15.76 0 0 0-15.658-15.854Z"/>
  <path fill="#4CAF4F" d="m275.859 310.337-76.605-.331c-.796 0-1.437-.868-1.427-1.922l.083-20.04c0-1.034.651-1.923 1.447-1.923l76.605.352a1.736 1.736 0 0 1 1.426 1.933l-.072 20.019c0 1.064-.662 1.922-1.457 1.912Z"/>
  <path fill="#E8E8E3" d="M222.544 300.124c-.422 0-.829-.067-1.219-.203-.385-.141-.683-.32-.895-.537l.236-.463c.201.195.469.36.805.496.342.13.699.195 1.073.195.358 0 .648-.043.87-.13.228-.092.393-.214.496-.366a.845.845 0 0 0 .163-.504.745.745 0 0 0-.195-.537 1.252 1.252 0 0 0-.496-.317 5.052 5.052 0 0 0-.683-.211c-.249-.06-.499-.122-.748-.187a3.403 3.403 0 0 1-.691-.277 1.49 1.49 0 0 1-.504-.447c-.125-.19-.188-.436-.188-.74 0-.282.074-.539.22-.772.152-.239.382-.429.691-.57.309-.146.705-.219 1.187-.219.32 0 .637.046.952.138.314.087.585.209.813.366l-.203.48a2.917 2.917 0 0 0-1.57-.472c-.341 0-.623.046-.845.138a1.087 1.087 0 0 0-.496.374.908.908 0 0 0-.155.521c0 .222.062.401.187.537.13.135.298.241.504.317.212.076.442.143.691.203.25.06.496.125.74.195.25.071.477.163.683.277.212.108.38.254.505.439.13.184.195.425.195.723 0 .277-.076.534-.228.773-.152.233-.385.423-.699.569-.309.141-.708.211-1.196.211Zm3.434-.048v-5.692h.601v5.692h-.601Zm2.453 0v-5.692h.496l3.928 4.944h-.26v-4.944h.593v5.692h-.496l-3.919-4.944h.26v4.944h-.602Zm9.111.048c-.433 0-.835-.07-1.203-.211a2.949 2.949 0 0 1-.951-.61 2.842 2.842 0 0 1-.627-.919 2.984 2.984 0 0 1-.219-1.154c0-.418.073-.803.219-1.155a2.797 2.797 0 0 1 1.586-1.521 3.24 3.24 0 0 1 1.203-.219c.434 0 .83.068 1.188.203.363.136.672.342.927.618l-.374.382a2.14 2.14 0 0 0-.789-.512 2.728 2.728 0 0 0-.927-.154c-.353 0-.678.059-.976.179a2.318 2.318 0 0 0-1.285 1.244 2.376 2.376 0 0 0-.179.935c0 .336.06.647.179.935.125.287.296.539.513.756.222.211.479.377.772.496.298.114.621.171.968.171.325 0 .631-.049.919-.147a2.14 2.14 0 0 0 .805-.496l.341.456c-.271.238-.588.42-.951.545a3.639 3.639 0 0 1-1.139.178Zm1.513-.796v-2.098h.577v2.171l-.577-.073Zm6.701.796c-.726 0-1.298-.208-1.716-.626-.417-.417-.626-1.035-.626-1.854v-3.26h.602v3.236c0 .672.152 1.168.455 1.488.304.32.732.48 1.285.48.559 0 .989-.16 1.293-.48.304-.32.455-.816.455-1.488v-3.236h.586v3.26c0 .819-.209 1.437-.626 1.854-.412.418-.981.626-1.708.626Zm4.147-.048v-5.692h2.13c.483 0 .898.078 1.245.236.346.151.612.374.796.666.19.288.285.637.285 1.049 0 .401-.095.748-.285 1.041-.184.287-.45.51-.796.667-.347.157-.762.236-1.245.236h-1.797l.269-.285v2.082h-.602Zm.602-2.033-.269-.293h1.781c.569 0 1-.122 1.293-.366.298-.249.447-.599.447-1.049 0-.455-.149-.807-.447-1.057-.293-.249-.724-.374-1.293-.374h-1.781l.269-.284v3.423Z"/>
  <path fill="#4CAF4F" d="m214.533 134.152-26.582-.121-.022 4.879 26.582.12.022-4.878Z"/>
  <path fill="#000" d="m214.533 134.152-26.582-.121-.022 4.879 26.582.12.022-4.878Z" opacity=".1"/>
  <path fill="#E0E0E0" d="M292.457 164.103c.209-.021.414-.069.61-.144a1.627 1.627 0 0 0 1.033-1.396v-13.725a2.003 2.003 0 0 0-.289-1.354 1.55 1.55 0 0 0-1.23-.63h-16.547l-86.444-.321a1.384 1.384 0 0 0-1.137.569 1.979 1.979 0 0 0-.269 1.354v12.402a8.325 8.325 0 0 0 0 1.447 1.398 1.398 0 0 0 .807.93c.203.081.421.12.64.114h5.261l22.955.124 38.86.238 26.2.206 7.121.083h2.481-35.802l-38.86-.124-22.955-.093h-5.261a2.062 2.062 0 0 1-.847-.145 1.948 1.948 0 0 1-1.116-1.292 2.902 2.902 0 0 1-.062-.826v-13.168a5.693 5.693 0 0 1 0-.826c.038-.304.156-.593.341-.838a1.893 1.893 0 0 1 1.571-.795l86.444.475 14.934.103h1.613a1.764 1.764 0 0 1 1.447.755c.291.449.409.989.33 1.519v6.604c0 3.101-.072 5.478-.093 7.132a1.67 1.67 0 0 1-1.085 1.436 1.228 1.228 0 0 1-.651.186Z"/>
  <path fill="#4CAF4F" d="M244.553 151.722h-48.617v4.558h48.617v-4.558Z"/>
  <path fill="#fff" d="M244.553 151.722h-48.617v4.558h48.617v-4.558Z" opacity=".2"/>
  <path fill="#4CAF4F" d="m214.352 178.654-26.582-.12-.022 4.878 26.582.12.022-4.878Z"/>
  <path fill="#000" d="m214.352 178.654-26.582-.12-.022 4.878 26.582.12.022-4.878Z" opacity=".1"/>
  <path fill="#E0E0E0" d="M291.785 208.607a5.41 5.41 0 0 0 .62-.114 2.123 2.123 0 0 0 1.303-1.178c.162-.417.226-.866.186-1.313v-12.329a2.226 2.226 0 0 0-.3-1.365 2.003 2.003 0 0 0-1.127-.878 6.321 6.321 0 0 0-1.56-.083h-14.873l-86.144-.32a1.914 1.914 0 0 0-1.891 1.664v12.402c-.039.483-.018.969.062 1.447.129.419.394.783.754 1.033.382.243.83.358 1.282.331h4.423l22.872.114 38.726.238 26.107.206 7.1.083h-33.207l-38.747-.041-22.872-.083h-4.495a2.6 2.6 0 0 1-1.582-.424 2.481 2.481 0 0 1-.971-1.354 6.474 6.474 0 0 1-.083-1.591v-12.403a2.449 2.449 0 0 1 2.429-2.139l86.144.475 14.873.114a6.367 6.367 0 0 1 1.653.114c.537.175.99.543 1.272 1.033.267.455.383.984.33 1.509v12.382c.038.462-.037.926-.217 1.354a2.184 2.184 0 0 1-1.395 1.178 1.929 1.929 0 0 1-.672-.062Z"/>
  <path fill="#4CAF4F" d="m214.152 225.089-26.582-.12-.022 4.878 26.582.12.022-4.878Z"/>
  <path fill="#000" d="m214.152 225.089-26.582-.12-.022 4.878 26.582.12.022-4.878Z" opacity=".1"/>
  <path fill="#E0E0E0" d="M291.578 255.023c.209-.025.417-.063.621-.114a2.126 2.126 0 0 0 1.302-1.168c.162-.417.226-.866.186-1.312v-12.341a2.224 2.224 0 0 0-.3-1.364 2.065 2.065 0 0 0-1.126-.868 6.286 6.286 0 0 0-1.561-.093h-14.872l-86.145-.321a1.912 1.912 0 0 0-1.891 1.664v12.403c-.039.479-.018.962.062 1.436.124.422.39.787.754 1.034.38.248.83.364 1.282.33h4.496l22.872.125 38.726.237 26.107.207 7.1.083h-33.207l-38.726-.114-22.872-.093h-4.496a2.524 2.524 0 0 1-1.581-.424 2.478 2.478 0 0 1-.972-1.354 6.523 6.523 0 0 1-.083-1.591v-12.454a2.443 2.443 0 0 1 2.419-2.14l86.144.476 14.873.113a6.414 6.414 0 0 1 1.653.114c.537.175.99.544 1.272 1.034.267.455.383.983.33 1.509v12.381c.04.462-.035.927-.217 1.354a2.184 2.184 0 0 1-1.395 1.178 1.64 1.64 0 0 1-.755.073Z"/>
  <path fill="#4CAF4F" d="m243.515 197.514-48.616-.221-.021 4.558 48.617.221.02-4.558Z"/>
  <path fill="#fff" d="m243.515 197.514-48.616-.221-.021 4.558 48.617.221.02-4.558Z" opacity=".2"/>
  <path fill="#4CAF4F" d="M199.295 246.589a2.131 2.131 0 0 1-2.654 1.906 2.13 2.13 0 0 1-.595-3.869 2.125 2.125 0 0 1 1.182-.321 2.193 2.193 0 0 1 2.067 2.284Zm6.583.031c.021.291-.019.584-.117.859a2.11 2.11 0 0 1-.449.741 2.13 2.13 0 0 1-3.681-1.6 2.109 2.109 0 0 1 .117-.859 2.129 2.129 0 0 1 4.13.859Zm6.594.031a2.13 2.13 0 0 1-1.431 1.858 2.132 2.132 0 0 1-2.271-.585 2.133 2.133 0 0 1 .454-3.236 2.124 2.124 0 0 1 1.181-.321 2.202 2.202 0 0 1 2.067 2.284Zm6.584.031a2.131 2.131 0 0 1-2.654 1.906 2.13 2.13 0 0 1-1.404-2.951 2.125 2.125 0 0 1 1.991-1.239 2.2 2.2 0 0 1 2.067 2.284Zm6.584.021a2.131 2.131 0 0 1-3.7 1.286 2.128 2.128 0 0 1 1.632-3.56 2.202 2.202 0 0 1 2.068 2.274Zm6.593.031a2.127 2.127 0 0 1-3.681 1.307 2.132 2.132 0 0 1 .394-3.235 2.127 2.127 0 0 1 1.169-.346 2.204 2.204 0 0 1 2.118 2.274Zm6.584.031a2.136 2.136 0 0 1-1.275 2.101 2.138 2.138 0 0 1-1.698 0 2.129 2.129 0 0 1-1.275-2.101 2.141 2.141 0 0 1 .567-1.601 2.126 2.126 0 0 1 2.406-.5 2.126 2.126 0 0 1 1.275 2.101Zm6.584.031a2.136 2.136 0 0 1-1.412 1.862 2.134 2.134 0 0 1-2.27-.555 2.132 2.132 0 0 1 .394-3.235 2.127 2.127 0 0 1 1.169-.346 2.204 2.204 0 0 1 2.119 2.274Zm6.583.031a2.13 2.13 0 1 1-2.067-2.274 2.202 2.202 0 0 1 2.067 2.274Z"/>
  <path fill="#fff" d="M199.295 246.589a2.131 2.131 0 0 1-2.654 1.906 2.13 2.13 0 0 1-.595-3.869 2.125 2.125 0 0 1 1.182-.321 2.193 2.193 0 0 1 2.067 2.284Zm6.583.031c.021.291-.019.584-.117.859a2.11 2.11 0 0 1-.449.741 2.13 2.13 0 0 1-3.681-1.6 2.109 2.109 0 0 1 .117-.859 2.129 2.129 0 0 1 4.13.859Zm6.594.031a2.13 2.13 0 0 1-1.431 1.858 2.132 2.132 0 0 1-2.271-.585 2.133 2.133 0 0 1 .454-3.236 2.124 2.124 0 0 1 1.181-.321 2.202 2.202 0 0 1 2.067 2.284Zm6.584.031a2.131 2.131 0 0 1-2.654 1.906 2.13 2.13 0 0 1-1.404-2.951 2.125 2.125 0 0 1 1.991-1.239 2.2 2.2 0 0 1 2.067 2.284Zm6.584.021a2.131 2.131 0 0 1-3.7 1.286 2.128 2.128 0 0 1 1.632-3.56 2.202 2.202 0 0 1 2.068 2.274Zm6.593.031a2.135 2.135 0 0 1-.427 1.142 2.135 2.135 0 0 1-2.202.781 2.126 2.126 0 0 1-1.446-2.92 2.135 2.135 0 0 1 1.957-1.277 2.204 2.204 0 0 1 2.118 2.274Zm6.584.031a2.136 2.136 0 0 1-1.275 2.101 2.138 2.138 0 0 1-1.698 0 2.129 2.129 0 0 1-1.275-2.101 2.141 2.141 0 0 1 .567-1.601 2.126 2.126 0 0 1 2.406-.5 2.126 2.126 0 0 1 1.275 2.101Zm6.584.031a2.136 2.136 0 0 1-1.412 1.862 2.134 2.134 0 0 1-2.27-.555 2.132 2.132 0 0 1 .394-3.235 2.127 2.127 0 0 1 1.169-.346 2.204 2.204 0 0 1 2.119 2.274Zm6.583.031a2.13 2.13 0 1 1-2.067-2.274 2.202 2.202 0 0 1 2.067 2.274Z" opacity=".2"/>
  <path fill="#4CAF4F" d="M242.631 97.627a3.996 3.996 0 0 0 2.387-3.71 3.752 3.752 0 0 0-1.028-2.787 3.75 3.75 0 0 0-2.729-1.173 3.765 3.765 0 0 0-3.757 3.96 4.015 4.015 0 0 0 2.398 3.751c-5.788.868-5.529 7.152-5.529 7.152l13.684.062s.32-6.397-5.426-7.255Z"/>
  <path fill="#000" d="M242.631 97.627a3.996 3.996 0 0 0 2.387-3.71 3.752 3.752 0 0 0-1.028-2.787 3.75 3.75 0 0 0-2.729-1.173 3.765 3.765 0 0 0-3.757 3.96 4.015 4.015 0 0 0 2.398 3.751c-5.788.868-5.529 7.152-5.529 7.152l13.684.062s.32-6.397-5.426-7.255Z" opacity=".1"/>
  <path fill="#4CAF4F" d="m264.867 108.935-48.772-.221-.027 5.829 48.772.221.027-5.829Z"/>
  <path fill="#fff" d="m264.867 108.935-48.772-.221-.027 5.829 48.772.221.027-5.829Z" opacity=".2"/>
  <path fill="#4CAF4F" d="M85.566 139.144h-.486l-1.406.103a15.97 15.97 0 0 0-2.263.3c-.484.068-.963.161-1.437.279l-1.602.444a26.333 26.333 0 0 0-7.617 3.773 26.81 26.81 0 0 0-7.503 8.35 28.003 28.003 0 0 0-2.625 6.005 28.882 28.882 0 0 0-1.148 7.008 28.393 28.393 0 0 0 .063 3.741c0 .63.175 1.261.258 1.902.07.646.19 1.285.362 1.912a27.275 27.275 0 0 0 15.503 18.944 24.56 24.56 0 0 0 8.877 1.995c3.159.174 6.32-.28 9.302-1.333l.91-.341h.124l.103.062 13.033 6.614-.383.331c-1.395-4.32-2.738-8.506-4.041-12.526v-.155l.114-.114a27.898 27.898 0 0 0 6.842-11.369 28.634 28.634 0 0 0 1.034-12.113 28.303 28.303 0 0 0-3.421-10.273 27.913 27.913 0 0 0-5.892-7.235 28.777 28.777 0 0 0-6.397-4.072 27.847 27.847 0 0 0-5.416-1.705l-2.067-.341-1.498-.114-.91-.062h-.31a1.46 1.46 0 0 1 .31 0h.92l1.498.062 2.068.3c1.881.354 3.72.905 5.488 1.643a28.744 28.744 0 0 1 6.511 4.062 27.989 27.989 0 0 1 6.015 7.234 28.365 28.365 0 0 1 3.524 10.408c.571 4.128.243 8.33-.961 12.32a28.277 28.277 0 0 1-6.945 11.606l.062-.268c1.302 4.02 2.656 8.206 4.062 12.516l.196.63-.589-.3-13.033-6.604h.227l-.93.341a24.65 24.65 0 0 1-9.477 1.364 25.118 25.118 0 0 1-9.064-2.067 27.186 27.186 0 0 1-12.95-11.586 27.581 27.581 0 0 1-2.925-7.648 15.847 15.847 0 0 1-.362-1.953c-.083-.651-.217-1.292-.248-1.933a30.539 30.539 0 0 1 1.147-10.914 27.808 27.808 0 0 1 2.698-6.077 27.036 27.036 0 0 1 7.658-8.402 26.128 26.128 0 0 1 7.741-3.742l1.623-.413c.477-.111.96-.197 1.447-.259a15.5 15.5 0 0 1 2.284-.248l1.416-.051a3.42 3.42 0 0 1 .486-.031Z"/>
  <path fill="#4CAF4F" d="M91.457 163.245h-1.912l-4.134-5.808v-3.814s-2.956-.186-2.605 4.806c.352 4.992 0 3.721 0 3.721s-6.273 0-6.79.568c-.517.569-.548 6.625-.62 10.005a3.66 3.66 0 0 0 2.594 3.679c.219.061.445.092.672.093 1.57 0 9.56-1.271 9.56-1.271h3.297l-.062-11.979Zm5.467-1.023-1.178 13.064H92.48v-12.795l4.444-.269Zm38.954 265.958v-8.837l-15.844-.114-.135 13.364.982.072c4.372.279 22.242.693 25.177-.217 3.266-1.013-10.18-4.268-10.18-4.268Z"/>
  <path fill="#263238" d="M146.43 431.621c0 .145-5.932.269-13.239.269-7.308 0-13.24-.124-13.24-.269 0-.144 5.932-.268 13.24-.268 7.307 0 13.239.124 13.239.268Zm-10.273-1.633c-.135-.072 0-.537.32-1.033.321-.496.755-.703.858-.6.103.104-.114.496-.424.92-.31.424-.62.786-.754.713Zm1.013.579c-.145 0-.073-.579.237-1.126.31-.548.724-.879.837-.796.114.082-.072.547-.361 1.033-.29.486-.579.941-.713.889Z"/>
  <path fill="#263238" d="M124.726 431.58c-.062 0-.3-.186-.641-.579-.416-.505-.88-.968-1.385-1.385a3.655 3.655 0 0 0-1.715-.754c-.486-.062-.796 0-.827-.062-.031-.062.268-.279.837-.321a3.198 3.198 0 0 1 2.067.703c.548.447 1.01.99 1.364 1.602.238.455.362.755.3.796Zm11.482-3.256c.073.124-.196.434-.651.6-.454.165-.858.103-.878 0-.021-.104.3-.321.692-.465.393-.145.755-.259.837-.135Zm-.248-.857c0 .155-.413.279-.951.289-.537.01-.961-.114-.95-.258.01-.145.434-.28.95-.29.517-.01.931.114.951.259Z"/>
  <path fill="#4CAF4F" d="M174.893 428.18v-8.837l-15.844-.114-.134 13.229.982.073c4.372.279 22.252.827 25.177-.083 3.265-1.013-10.181-4.268-10.181-4.268Z"/>
  <path fill="#263238" d="M185.446 431.642c0 .145-5.923.269-13.24.269s-13.229-.124-13.229-.269c0-.145 5.922-.269 13.229-.269 7.307 0 13.24.124 13.24.269Zm-10.274-1.654c-.124-.072 0-.537.321-1.033.32-.496.754-.703.858-.6.103.104-.114.496-.424.92-.31.424-.62.786-.755.713Zm1.013.579c-.134 0-.072-.579.248-1.126.321-.548.724-.879.837-.796.114.082-.082.547-.372 1.033-.289.486-.568.941-.713.889Z"/>
  <path fill="#263238" d="M163.742 431.58c-.062 0-.29-.186-.641-.579-.417-.505-.88-.968-1.385-1.385a3.659 3.659 0 0 0-1.716-.754c-.475-.062-.796 0-.827-.062-.031-.062.269-.279.838-.321a3.198 3.198 0 0 1 2.067.703 5.657 5.657 0 0 1 1.364 1.602c.238.455.362.755.3.796Zm11.482-3.256c.072.124-.196.434-.651.6-.455.165-.858.103-.879 0-.02-.104.3-.321.693-.465.393-.145.754-.259.837-.135Zm-.227-.857c0 .155-.414.279-.951.289-.538.01-.951-.114-.941-.258.011-.145.424-.28.941-.29.517-.01.951.114.951.259Z"/>
  <path fill="#FFBE9D" d="M233.267 165.767c-.414-.423-1.437-.217-1.437-.217a5.27 5.27 0 0 0 0-1.798c-.186-.579-1.488-.465-1.488-.465-.06-.488-.06-.98 0-1.468a.531.531 0 0 0-.3-.527 4.77 4.77 0 0 0-1.943-.351c-.796-.569 2.429-5.085 3.628-6.532 1.199-1.447.982-2.574-.083-2.574-.734 0-4.496 4.341-5.653 5.798-1.158 1.458-4.227 5.509-4.331 2.274-.103-3.235-1.405-5.674-2.222-6.087-.816-.414-1.684.558-1.24 1.457.391 1.022.634 2.093.724 3.183.112.869.073 1.75-.114 2.605a31.268 31.268 0 0 1-1.395 4.671h-.083s-22.552 21.632-24.185 23.172c-1.457 1.385-30.768-1.643-36.648-2.263a39.337 39.337 0 0 0-6.036-.414c-2.553.114-3.008.476-5.55.507-6.421.071-12.827.634-19.162 1.684a15.885 15.885 0 0 0-12.464 10.811c-5.922 18.5-19.337 62.291-21.704 86.888a104.494 104.494 0 0 0-4.837 9.995c-1.664 4.527-1.261 4.682-.703 4.785 1.509.279 3.225-7.845 3.865-5.881.641 1.964-3.255 9.684-1.674 9.912 2.067.289 3.71-8.269 3.907-8.951.196-.682 1.22-.465 1.033.176-.3.91-3.204 10.552-1.178 10.862 1.116.166 1.24-1.87 1.24-1.87s2.067-9.23 3.008-9.044c.94.186-.062 5.633-.538 7.452-.475 1.819.187 2.739 1.158 2.294.662-.31 2.243-5.839 2.677-7.637.434-1.799 1.519-6.78 2.976-3.897 1.458 2.884 3.669 4.558 4.579 4.6a1.03 1.03 0 0 0 .86-1.359 1.02 1.02 0 0 0-.354-.491 11.722 11.722 0 0 1-1.994-2.584 7.63 7.63 0 0 1-1.034-2.419 26.202 26.202 0 0 1-.723-5.229l-.166-1.034c2.315-11.462 8.982-45.103 18.604-66.59l3.948 8.123 1.716 6.016-10.522 25.972 44.876-.589-6.697-25.776 8.134-26.872c8.795.197 31.377.527 35.139-1.178 4.734-2.067 29.218-32.99 29.218-32.99a56.464 56.464 0 0 0 4.579-3.969s1.488-1.251.589-2.181Z"/>
  <path fill="#4CAF4F" d="M115.455 240.13c1.302-4.445 7.989-26.417 7.989-26.417s3.287 17.911 2.419 20.071a38.269 38.269 0 0 1-2.822 5.333c-7.586 11.544-6.594 17.322-6.594 17.322l45.837-1.396c.104-6.408-3.689-21.311-4.475-23.688-.785-2.377 1.829-10.16 1.829-10.16s5.168-5.26 4.982-7.968a43.813 43.813 0 0 0-.899-7.235l27.905 1.034-.878-18.914-40.081-4.01c-1.395 3.938-14.014 2.005-14.014 2.005-13.622.455-14.47 2.956-20.133 7.359-5.664 4.403-15.038 42.188-15.038 42.188l13.973 4.476Z"/>
  <path fill="#263238" d="M142.554 235.654a9.618 9.618 0 0 1-2.408.124c-1.498 0-3.555-.103-5.819-.33a63.292 63.292 0 0 1-5.767-.838 9.911 9.911 0 0 1-2.346-.599c.808 0 1.615.077 2.408.227 1.468.186 3.504.445 5.757.672 2.253.228 4.3.383 5.777.486.806.01 1.609.097 2.398.258Zm3.142-3.896c-.794.389-1.635.677-2.501.858a45.941 45.941 0 0 1-12.64 1.498 10.388 10.388 0 0 1-2.625-.248c.87-.11 1.748-.154 2.625-.134a74.658 74.658 0 0 0 6.315-.455 68.595 68.595 0 0 0 6.201-1.033c.861-.23 1.739-.393 2.625-.486Zm15.42-17.384c-.02.788-.128 1.571-.32 2.336-.269 1.436-.682 3.4-1.209 5.55s-1.034 4.134-1.488 5.478a10.348 10.348 0 0 1-.807 2.222c.058-.786.204-1.562.434-2.315.393-1.613.838-3.473 1.334-5.509.496-2.036.971-3.897 1.364-5.509.14-.776.372-1.532.692-2.253Zm-45.175 23.12a48.096 48.096 0 0 1-7.059-1.643 49.06 49.06 0 0 1-6.925-2.171c2.39.376 4.749.925 7.059 1.644a48.5 48.5 0 0 1 6.925 2.17Zm48.276-31.729c-.39.067-.788.067-1.178 0a12.248 12.248 0 0 1-3.152-.755 12.942 12.942 0 0 1-7.483-7.348 13.36 13.36 0 0 1-.92-5.819 9.037 9.037 0 0 1 1.416-4.609 4.78 4.78 0 0 1 2.615-1.933c.286-.079.581-.117.878-.114h.31s-.434 0-1.126.279a4.704 4.704 0 0 0-2.367 1.933c-1.406 2.212-1.798 6.253-.3 10.025a12.641 12.641 0 0 0 3.194 4.672 13.58 13.58 0 0 0 3.917 2.522c1.352.534 2.76.919 4.196 1.147Zm24.092.889a86.101 86.101 0 0 1-.249-9.53c-.08-3.175.016-6.353.29-9.518.259 3.166.341 6.343.248 9.518.087 3.18-.01 6.361-.289 9.53Z"/>
  <path fill="#FFBE9D" d="M150.399 185.26c.113-2.305.351-4.91.351-4.91s5.705-.63 6.046-6.521c.341-5.891 0-19.482 0-19.482l-10.335-5.292-11.472 9.023 1.767 29.455 10.521.672a3.04 3.04 0 0 0 3.122-2.945Z"/>
  <path fill="#EB996E" d="M151.422 169.168s0 .113-.093.248a.772.772 0 0 1-.651.289c-.662 0-1.302-.765-1.53-1.654a2.697 2.697 0 0 1 0-1.312 1.138 1.138 0 0 1 .62-.889.572.572 0 0 1 .434 0 .527.527 0 0 1 .238.238c.072.175 0 .289 0 .279 0-.011 0-.104-.103-.207a.371.371 0 0 0-.486-.103.871.871 0 0 0-.424.733 2.646 2.646 0 0 0 0 1.168c.207.807.765 1.458 1.261 1.52a.71.71 0 0 0 .548-.155c.124-.083.165-.166.186-.155Z"/>
  <path fill="#263238" d="M160.341 151.164c-.796-2.708-3.679-4.052-6.304-4.796-4-1.137-8.32-1.633-12.227-.196-3.907 1.436-8.599 3.958-8.599 8.268-2.305-.186-3.627 1.829-4.537 4.33a16.259 16.259 0 0 0-1.034 4.755c-.289 5.643-1.87 13.435-5.529 17.57-2.067 2.304-4.93 3.896-6.108 6.769-1.034 2.491-.496 5.447-1.457 7.969-.858 2.222-2.749 3.803-4.134 5.736a15.366 15.366 0 0 0-2.413 7.309 15.369 15.369 0 0 0 1.431 7.563 18.829 18.829 0 0 0 11.255 9.715 26.324 26.324 0 0 0 14.831.145 24.798 24.798 0 0 0 9.942-4.93 16.597 16.597 0 0 0 5.768-9.55c.733-4.217-.445-8.506-1.323-12.702-2.75-13.26-1.964-13.952 1.509-26.262.082-.217.124-.444.186-.661.062-.217.093-.321.134-.486.099-.486.151-.981.155-1.478a2.835 2.835 0 0 1-2.987-.641 3.1 3.1 0 0 1-.703-3.1 4.518 4.518 0 0 1 2.667-2.512c1.147-.475 2.377-.723 3.503-1.25 2.388-1.137 4.042-3.494 5.168-5.964a8.184 8.184 0 0 0 .806-5.601Z"/>
  <path fill="#4CAF4F" d="M151.835 169.447c.219.322.399.669.538 1.033.31.651.723 1.571 1.178 2.636l.083.196h-.217l-1.034.093c-.713 0-1.312.134-2.015.124a.376.376 0 0 1-.269-.238.46.46 0 0 1 0-.289c.024-.139.055-.277.093-.413l.186-.734a7.01 7.01 0 0 1 .434-1.426 6.95 6.95 0 0 1-.217 1.477l-.145.734c-.051.248-.144.631 0 .6.517 0 1.251-.114 1.933-.155l1.034-.093-.135.227a33.158 33.158 0 0 1-1.033-2.677 4.02 4.02 0 0 1-.414-1.095Z"/>
  <path fill="#263238" d="m116.447 256.439 45.837-1.396 19.947 77.866-3.669 89.318h-24.236l2.966-87.416-17.725-54.209 2.729 145.087-24.495.362-2.573-136.374c-.114-3.793-1.354-12.341-.889-16.103l2.108-17.135Z"/>
  <path fill="#455A64" d="M145.665 281.708a9.168 9.168 0 0 1-2.243-.134 72.512 72.512 0 0 1-5.353-.868 69.303 69.303 0 0 1-5.282-1.271 8.5 8.5 0 0 1-2.067-.745c0-.155 3.37.652 7.504 1.489 4.134.837 7.462 1.374 7.441 1.529Zm32.649 135.62c0 .144-5.488.268-12.257.268-6.77 0-12.268-.124-12.268-.268 0-.145 5.488-.269 12.268-.269s12.257.114 12.257.269Zm-36.235 4.588c0 .155-5.333.269-11.906.269-6.574 0-11.896-.114-11.896-.269 0-.155 5.333-.268 11.896-.268 6.563 0 11.906.124 11.906.268Z"/>
  <path fill="#455A64" d="M138.916 421.544c-.144 0-.785-31.698-1.436-70.796-.651-39.098-1.034-70.817-.9-70.817.135 0 .796 31.688 1.437 70.807s1.054 70.806.899 70.806Zm36.143-4.216a2.501 2.501 0 0 1 0-.424v-1.24c0-1.117.082-2.718.144-4.755.145-4.134.352-10.138.61-17.497.558-14.8 1.344-35.202 2.202-57.723v-.609.072c-5.426-21.704-10.336-41.403-13.901-55.655l-4.134-16.857c-.476-1.974-.838-3.514-1.096-4.589-.124-.507-.207-.899-.279-1.199a1.753 1.753 0 0 1-.072-.413c.053.13.095.265.124.403.082.289.186.682.33 1.178.279 1.033.682 2.604 1.199 4.568 1.034 3.989 2.491 9.736 4.31 16.816 3.597 14.242 8.558 33.889 14.056 55.624v.682c-.92 22.521-1.757 42.912-2.367 57.712-.32 7.369-.589 13.333-.775 17.487-.103 2.068-.186 3.638-.238 4.755 0 .527-.062.94-.072 1.24.002.142-.012.284-.041.424Z"/>
  <path fill="#455A64" d="M167.152 333.261c-1.741.572-3.534.97-5.353 1.188-2.233.383-4.135.651-4.992.693v-.207c.279.083.423.134.423.176 0 .041-.175 0-.465 0h-.62l.62-.186c.806-.238 2.708-.631 4.941-1.034 1.79-.388 3.614-.6 5.446-.63Zm-.424 2.966a26.67 26.67 0 0 1-4.826-.217 27.327 27.327 0 0 1-4.806-.527 30.571 30.571 0 0 1 9.632.744Z"/>
  <path fill="#000" d="M116.251 258.082a6.29 6.29 0 0 0 4.527 2.408 20.39 20.39 0 0 0 5.55-.103c11.834-1.313 24.37-2.522 35.956-5.344-14.996.837-30.84.558-45.837 1.396l-.155 1.281m15.41 21.497 8.455 32.805-.59-31.42-7.865-1.385Z" opacity=".2"/>
</svg>
