<svg xmlns="http://www.w3.org/2000/svg" width="442" height="433" fill="none" viewBox="0 0 442 433">
  <path fill="#F5F5F5" d="M220.766 380.995c94.561 0 171.218-4.476 171.218-9.996 0-5.521-76.657-9.997-171.218-9.997-94.56 0-171.217 4.476-171.217 9.997 0 5.52 76.657 9.996 171.217 9.996Z"/>
  <path fill="#E58A7B" d="m308.411 147.751-8.76-3.532s-11.56 21.078-14.871 22.147c-4.504 1.448-13.829 5.475-19.357 6.181-.751.883-1.978 3.63-1.863 4.628 7.426 2.481 23.745-.813 27.242-3.409 7.957-5.89 17.609-26.015 17.609-26.015Z"/>
  <path fill="#4CAF4F" d="M311.104 142.956c1.634 6.031-7.215 18.164-7.215 18.164l-11.594-6.499s2.172-4.989 4.821-10.067c4.248-8.204 12.125-8.477 13.988-1.598Z"/>
  <path fill="#000" d="M311.104 142.956c1.634 6.031-7.215 18.164-7.215 18.164l-11.594-6.499s2.172-4.989 4.821-10.067c4.248-8.204 12.125-8.477 13.988-1.598Z" opacity=".2"/>
  <path fill="#000" d="m296.896 157.217 4.565 2.561.804-14.014c-2.658 2.04-4.531 8.186-5.369 11.453Z" opacity=".2"/>
  <path fill="#4CAF4F" d="M303.474 138.417s-9.025 20.081-3.762 57.47h35.562c.565-5.458-1.307-32.091 5.466-57.806a90.484 90.484 0 0 0-11.816-1.51 130.855 130.855 0 0 0-15.109 0 69.621 69.621 0 0 0-10.341 1.846Z"/>
  <path fill="#000" d="M303.474 138.417s-9.025 20.081-3.762 57.47h35.562c.565-5.458-1.307-32.091 5.466-57.806a90.484 90.484 0 0 0-11.816-1.51 130.855 130.855 0 0 0-15.109 0 69.621 69.621 0 0 0-10.341 1.846Z" opacity=".2"/>
  <path fill="#E8ECF1" d="M295.226 371.793c-.053.954 13.432 1.722 30.113 1.722 16.681 0 30.263-.768 30.316-1.722.053-.953-13.423-1.713-30.113-1.713-16.69 0-30.254.769-30.316 1.713Z" style="mix-blend-mode:multiply"/>
  <path fill="#E58A7B" d="m318.964 346.734-6.307 2.442 5.433 14.035 6.307-2.441-5.433-14.036Zm28.125 18.269h-6.65l-2.437-15.392h6.65l2.437 15.392Z"/>
  <path fill="#263238" d="M339.98 364.234h7.471a.548.548 0 0 1 .539.46l.962 5.907a1.037 1.037 0 0 1-.608 1.093 1.043 1.043 0 0 1-.434.091c-2.605-.045-3.859-.204-7.144-.204-2.022 0-6.181.212-8.989.212-2.809 0-2.994-2.755-1.837-3.011 5.192-1.121 7.206-2.649 8.936-4.133a1.675 1.675 0 0 1 1.104-.415Zm-22.076-2.278 7.064-2.066a.573.573 0 0 1 .662.282l2.65 5.299a1.017 1.017 0 0 1-.663 1.404c-2.569.706-4.291 1.139-7.506 2.075-2.216.645-4.477 1.695-6.667 2.393-1.519.486-5.086.503-6.932.503-2.729 0-3.338-2.878-2.163-3.011 2.958-.327 3.355-.176 4.989-.998a22.672 22.672 0 0 0 7.135-4.927 3.303 3.303 0 0 1 1.431-.954Z"/>
  <path fill="#E58A7B" d="m266.536 172.512-7.312-3.064-3.011 8.106c2.997.457 6.045.457 9.042 0l1.281-5.042Zm-12.752-3.276-.194 5.386 2.623 2.915 3.011-8.107-5.44-.194Z"/>
  <path fill="#CF6F64" d="m319.829 347.926-6.327 2.443 2.802 7.258 6.327-2.443-2.802-7.258Zm24.823 1.685h-6.65l1.263 7.939h6.649l-1.262-7.939Z"/>
  <path fill="#000" d="M298.582 185.776c.133 1.598.283 3.232.477 4.909l26.439-8.583a18.933 18.933 0 0 0 10.173-7.356c.106-2.358.238-4.839.441-7.426.089-1.254.195-2.544.31-3.851.114-1.307.273-2.755.441-4.15l-38.281 26.457Z" opacity=".2"/>
  <path fill="#fff" d="m307.219 156.811-.884-.106c.521-4.415 3.815-7.895 7.286-7.806v.883c-3.038-.062-5.934 3.073-6.402 7.029Zm4.706 8.151h-.15v-.883c3.038.114 5.89-3.056 6.358-7.003l.883.106c-.468 4.318-3.656 7.78-7.091 7.78Z"/>
  <path fill="#E58A7B" d="M328.43 119.555c-1.245 4.865-2.711 13.775.494 17.016 0 0-2.243 4.937-11.276 4.937-8.257 0-3.833-4.937-3.833-4.937 5.493-1.289 5.59-5.298 4.866-9.095l9.749-7.921Z"/>
  <path fill="#CF6F64" d="m324.456 122.786-5.766 4.69c.178.872.282 1.758.309 2.649 1.686 1.678 5.068-2.57 5.413-4.742.175-.856.19-1.736.044-2.597Zm-15.683-3.293a5.831 5.831 0 0 0 3.753 2.773c2.119.468 3.179-1.484 2.596-3.444-.521-1.767-2.261-4.142-4.415-3.736a2.95 2.95 0 0 0-1.934 4.407Z"/>
  <path fill="#263238" d="M312.279 103.924c-3.303 1.51-4.469 14.633-.318 16.575 4.15 1.943 6.57-19.445.318-16.575Z"/>
  <path fill="#E58A7B" d="M329.436 112.234c-.794 6.588-.883 10.464-4.415 13.838a8.493 8.493 0 0 1-12.465-.343 8.504 8.504 0 0 1-1.982-4.161c-1.068-5.917.406-15.692 7.012-18.315a8.501 8.501 0 0 1 11.85 8.981Z"/>
  <path fill="#263238" d="M318.584 107.333c4.892-1.245 8.486-2.093 7.197 1.978-1.705 5.44-3.753 10.703-1.007 10.941 1.678.15 9.095-2.993 8.151-6.181-.822-2.773 2.649-3.533 3.267-4.937 2.287-5.086-4.256-4.415-3.091-7.506 1.166-3.09-5.298-8.07-8.83-5.59-5.749 4.01-15.613 3.948-10.429-2.649 3.717-4.706-2.915-3.744-2.915-3.744s4.01 2.376-2.737 6.05c-7.135 3.92-.592 14.455 10.394 11.638Z"/>
  <path fill="#E58A7B" d="M332.033 119.493a6.847 6.847 0 0 1-4.071 2.773c-2.181.468-3.02-1.484-2.199-3.444.733-1.767 2.746-4.142 4.83-3.736 2.084.406 2.561 2.676 1.44 4.407Z"/>
  <path fill="#4CAF4F" d="M299.712 195.887s-5.969 53.425-6.437 73.7c-.477 21.088 20.231 86.885 20.231 86.885l10.597-4.415s-12.363-60.119-10.597-80.827c1.872-22.58 9.608-75.308 9.608-75.308l-23.402-.035Z"/>
  <path fill="#000" d="M314.548 210.554c-4.76 9.873-1.554 29.398 1.024 40.966.981-8.169 2.146-17.035 3.25-25.238-.106-12.61-1.086-22.351-4.274-15.728Z" opacity=".2"/>
  <path fill="#4CAF4F" d="M323.635 348.56c.053 0 1.254 3.373 1.254 3.373l-12.222 5.14-1.925-3.586 12.893-4.927Zm-11.304-152.673s4.566 50.811 7.586 69.841c3.32 20.85 16.337 90.285 16.337 90.285h12.177s-7.294-67.749-8.671-88.395c-1.502-22.394-4.486-71.731-4.486-71.731h-22.943Z"/>
  <path fill="#4CAF4F" d="M348.617 352.843c.053 0 .406 3.4.406 3.4h-13.387l-.954-3.904 13.935.504Z"/>
  <path fill="#000" d="M343.954 348.816a.116.116 0 0 1-.115-.097c-.07-.618-6.649-61.815-7.885-80.359-1.343-20.116-4.045-64.738-4.071-65.188a.09.09 0 0 1 .005-.043.101.101 0 0 1 .058-.063.104.104 0 0 1 .043-.009.115.115 0 0 1 .114.106c0 .451 2.729 45.037 4.071 65.188 1.237 18.544 7.815 79.697 7.877 80.359a.108.108 0 0 1-.001.044.111.111 0 0 1-.096.08v-.018Z" opacity=".2"/>
  <path fill="#263238" d="M319.334 114.071c0 .538-.335.971-.689.971-.353 0-.609-.433-.574-.971.036-.539.336-.972.689-.972.353 0 .61.442.574.972Zm-6.058 0c0 .538-.344.971-.688.971-.345 0-.61-.433-.583-.971.026-.539.344-.972.697-.972.354 0 .61.442.574.972Z"/>
  <path fill="#DF5753" d="M315.184 114.344a20.576 20.576 0 0 1-2.826 4.584c.883.883 2.534.476 2.534.476l.292-5.06Z"/>
  <path fill="#263238" d="M315.343 121.656a.153.153 0 0 1-.11-.047.146.146 0 0 1-.04-.112.168.168 0 0 1 .167-.159 4.52 4.52 0 0 0 3.533-1.66.163.163 0 0 1 .11-.041c.041 0 .08.014.11.041a.158.158 0 0 1 0 .221 4.82 4.82 0 0 1-3.77 1.757Zm5.069-9.21a.307.307 0 0 1-.274 0 2.499 2.499 0 0 0-2.252-.239.29.29 0 0 1-.115.031.28.28 0 0 1-.118-.016.304.304 0 0 1-.173-.156.326.326 0 0 1 .168-.424 3.106 3.106 0 0 1 2.852.265.306.306 0 0 1 .13.2.308.308 0 0 1-.051.233.36.36 0 0 1-.167.106Zm-9.476-1.766a.303.303 0 0 1-.216-.292.301.301 0 0 1 .093-.22 3.3 3.3 0 0 1 2.719-1.095.296.296 0 0 1 .25.24.314.314 0 0 1-.002.122.344.344 0 0 1-.371.264 2.656 2.656 0 0 0-2.146.884.328.328 0 0 1-.327.097Z"/>
  <path fill="#E58A7B" d="m344.157 146.771-9.184-2.446s-9.007 22.173-12.195 23.613c-4.327 1.978-15.286 8.83-19.948 12.071-.256 1.104-.053 4.027.53 4.831 7.947-1.449 23.162-7.303 26.341-10.279 7.25-6.791 14.456-27.79 14.456-27.79Z"/>
  <path fill="#4CAF4F" d="M337.746 365.4a1.937 1.937 0 0 1-1.263-.344.894.894 0 0 1-.273-.831.517.517 0 0 1 .3-.441c.742-.38 2.817.936 3.055 1.086a.145.145 0 0 1 .058.069c.011.029.012.06.004.09a.183.183 0 0 1-.124.133 8.387 8.387 0 0 1-1.757.238Zm-.883-1.378a.496.496 0 0 0-.203 0 .2.2 0 0 0-.081.077.197.197 0 0 0-.025.109.593.593 0 0 0 .177.574c.344.309 1.209.344 2.349.123a5.883 5.883 0 0 0-2.243-.883h.026Z"/>
  <path fill="#4CAF4F" d="M339.459 365.162a.12.12 0 0 1-.07 0c-.663-.371-1.908-1.828-1.722-2.57a.535.535 0 0 1 .521-.415.827.827 0 0 1 .662.203c.733.627.777 2.552.777 2.649a.13.13 0 0 1-.016.084.125.125 0 0 1-.063.057.159.159 0 0 1-.089-.008Zm-1.183-2.694h-.062c-.203 0-.229.115-.238.159-.106.433.68 1.537 1.333 2.058a3.658 3.658 0 0 0-.662-2.084.538.538 0 0 0-.371-.133Zm-23.975 1.828a2.527 2.527 0 0 1-1.669 0 .831.831 0 0 1-.433-.671.529.529 0 0 1 .185-.468c.707-.636 3.595 0 3.921.124a.14.14 0 0 1 .106.141.163.163 0 0 1-.024.094.176.176 0 0 1-.073.065c-.65.293-1.324.533-2.013.715Zm-1.44-1.051a.607.607 0 0 0-.273.133.182.182 0 0 0-.071.185.559.559 0 0 0 .282.451c.469.247 1.555.053 2.959-.539a8.696 8.696 0 0 0-2.897-.23Z"/>
  <path fill="#4CAF4F" d="M316.288 363.581h-.071c-.883-.159-2.649-1.175-2.702-1.934 0-.177.079-.424.503-.565a1.132 1.132 0 0 1 .883.053c.954.468 1.457 2.163 1.484 2.243a.16.16 0 0 1-.003.081.157.157 0 0 1-.041.069.168.168 0 0 1-.053.053Zm-2.093-2.234h-.089c-.273.097-.273.212-.273.247 0 .459 1.28 1.298 2.172 1.581a3.33 3.33 0 0 0-1.236-1.766.805.805 0 0 0-.574-.062Z"/>
  <path fill="#E58A7B" d="m303.58 179.488-9.21 4.239-1.069 2.649 3.4 2.287s6.358-.689 8.169-4.777l-1.29-4.398Z"/>
  <path fill="#263238" d="M303.969 184.99a12.412 12.412 0 0 0-1.713-4.998l1.457-1.095a14.21 14.21 0 0 1 2.049 5.784l-1.793.309Z"/>
  <path fill="#263238" d="M305.541 180.742c.194.306.29.665.274 1.028a1.774 1.774 0 0 1-1.239 1.606 1.761 1.761 0 0 1-1.932-.618 1.77 1.77 0 0 1-.077-2.027c.197-.304.483-.541.819-.678a1.61 1.61 0 0 1 2.155.689Z"/>
  <path fill="#E58A7B" d="m288.144 187.153 1.228 1.236 8.265-3.532-3.267-1.13-6.226 3.426Z"/>
  <path fill="#000" d="M323.635 348.56c.053 0 1.254 3.373 1.254 3.373l-12.222 5.14-1.925-3.586 12.893-4.927Zm24.982 4.283c.053 0 .406 3.4.406 3.4h-13.387l-.954-3.904 13.935.504Z" opacity=".2"/>
  <path fill="#4CAF4F" d="M346.55 144.227c2.429 7.833-7.064 18.545-7.064 18.545l-13.114-5.352a136.329 136.329 0 0 1 5.369-13.307c4.027-8.681 12.354-7.789 14.809.114Z"/>
  <path fill="#000" d="M346.55 144.227c2.429 7.833-7.064 18.545-7.064 18.545l-13.114-5.352a136.329 136.329 0 0 1 5.369-13.307c4.027-8.681 12.354-7.789 14.809.114Z" opacity=".2"/>
  <path fill="#4CAF4F" d="M216.245 65.75h-5.643v.909h5.643v-.91Zm73.046 35.999-.683 15.156.908.04.683-15.155-.908-.041Zm-1.756-31.919H183.333l-9.696 216.986h104.202l9.696-216.987Z"/>
  <path fill="#FAFAFA" d="M284.427 72.814H180.225L170.529 289.8h104.202l9.696-216.987Z" opacity=".56"/>
  <path fill="#4CAF4F" d="M281.318 75.79H177.117l-9.705 216.987h104.201l9.705-216.987Z" opacity=".07"/>
  <path fill="#fff" d="M269.459 170.428h-88.943l-.741 16.602h88.942l.742-16.602Z"/>
  <path fill="#4CAF4F" d="M229.429 158.312h-48.374l-.327 7.427h48.375l.326-7.427Z"/>
  <path fill="#fff" d="M267.454 215.235h-88.942l-.742 16.601h88.942l.742-16.601Z"/>
  <path fill="#4CAF4F" d="M251.144 254.257h-59.81l-.892 19.896h59.81l.892-19.896Z" opacity=".47"/>
  <path fill="#fff" d="M247.144 277.244h-59.81a.18.18 0 0 1-.08 0 .122.122 0 0 1 0-.08l.883-19.904a.11.11 0 0 1 .008-.04.108.108 0 0 1 .058-.053.091.091 0 0 1 .04-.004h59.81a.074.074 0 0 1 .071 0 .07.07 0 0 1 .009.035.07.07 0 0 1-.009.035l-.866 19.949a.123.123 0 0 1-.047.049.12.12 0 0 1-.067.013Zm-59.704-.212h59.598l.883-19.693h-59.598l-.883 19.693Z"/>
  <path fill="#4CAF4F" d="M218.983 203.119H179.05l-.326 7.435h39.923l.336-7.435Z"/>
  <path fill="#fff" d="M250.005 116.799a23.433 23.433 0 0 1-4.919 13.29 23.733 23.733 0 0 1-18.721 9.334 21.466 21.466 0 0 1-21.6-22.624 23.843 23.843 0 0 1 23.622-22.624 21.45 21.45 0 0 1 21.618 22.624Z"/>
  <path fill="#4CAF4F" d="M252.133 98.909a6.19 6.19 0 0 1-1.307 3.532 6.335 6.335 0 0 1-4.98 2.481 5.71 5.71 0 0 1-2.684-.65 5.709 5.709 0 0 1-2.067-1.831 5.832 5.832 0 0 1-.989-3.532 6.337 6.337 0 0 1 6.278-6.005 5.708 5.708 0 0 1 5.4 3.719c.271.73.39 1.508.349 2.285Z"/>
  <path fill="#263238" d="M190.098 178.729a2.818 2.818 0 0 1-2.782 2.649 2.508 2.508 0 0 1-2.389-1.639 2.521 2.521 0 0 1-.154-1.01 2.797 2.797 0 0 1 2.781-2.649 2.516 2.516 0 0 1 1.843.776 2.518 2.518 0 0 1 .701 1.873Zm11.903 0a2.809 2.809 0 0 1-2.781 2.649 2.523 2.523 0 0 1-2.535-2.649 2.799 2.799 0 0 1 2.773-2.649 2.501 2.501 0 0 1 1.846.773 2.517 2.517 0 0 1 .697 1.876Zm11.913 0a2.813 2.813 0 0 1-2.782 2.649 2.53 2.53 0 0 1-2.386-1.641 2.529 2.529 0 0 1-.157-1.008 2.804 2.804 0 0 1 2.782-2.649 2.505 2.505 0 0 1 1.845.773 2.517 2.517 0 0 1 .698 1.876Zm-25.821 44.807a2.817 2.817 0 0 1-2.782 2.649 2.533 2.533 0 0 1-1.842-.777 2.536 2.536 0 0 1-.701-1.872 2.804 2.804 0 0 1 2.782-2.65 2.53 2.53 0 0 1 2.386 1.641c.12.322.174.665.157 1.009Zm11.904 0a2.811 2.811 0 0 1-2.773 2.649 2.52 2.52 0 0 1-2.543-2.649 2.804 2.804 0 0 1 2.781-2.65 2.523 2.523 0 0 1 2.535 2.65Zm11.939 0a2.813 2.813 0 0 1-2.782 2.649 2.545 2.545 0 0 1-1.84-.779 2.554 2.554 0 0 1-.703-1.87 2.817 2.817 0 0 1 2.782-2.65 2.515 2.515 0 0 1 2.388 1.639c.12.323.173.667.155 1.011Zm11.886 0a2.822 2.822 0 0 1-.869 1.872c-.517.491-1.2.769-1.913.777a2.523 2.523 0 0 1-1.839-.78 2.528 2.528 0 0 1-.704-1.869 2.817 2.817 0 0 1 2.782-2.65 2.533 2.533 0 0 1 1.842.777 2.536 2.536 0 0 1 .701 1.873Zm11.957 0a2.818 2.818 0 0 1-2.782 2.649 2.52 2.52 0 0 1-2.543-2.649 2.804 2.804 0 0 1 2.781-2.65 2.534 2.534 0 0 1 1.843.777 2.518 2.518 0 0 1 .701 1.873Z"/>
  <path fill="#4CAF4F" d="M233.971 115.621c3.696-3.614 3.893-9.408.438-12.94-3.454-3.532-9.25-3.466-12.946.149-3.697 3.614-3.893 9.408-.438 12.94 3.454 3.532 9.25 3.465 12.946-.149Zm11.115 14.468a23.733 23.733 0 0 1-18.721 9.335 21.433 21.433 0 0 1-17.873-9.335c4.292-4.274 11.082-7.064 18.606-7.064 7.524 0 14.076 2.79 17.988 7.064Z"/>
  <path fill="#fff" d="M233.971 115.621c3.696-3.614 3.893-9.408.438-12.94-3.454-3.532-9.25-3.466-12.946.149-3.697 3.614-3.893 9.408-.438 12.94 3.454 3.532 9.25 3.465 12.946-.149Zm11.115 14.468a23.733 23.733 0 0 1-18.721 9.335 21.433 21.433 0 0 1-17.873-9.335c4.292-4.274 11.082-7.064 18.606-7.064 7.524 0 14.076 2.79 17.988 7.064Z" opacity=".1"/>
  <path fill="#E58A7B" d="M115.161 191.03a118.452 118.452 0 0 0-2.491 5.819c-.768 1.961-1.554 3.983-2.234 5.996a76.115 76.115 0 0 0-3.161 12.187l-.194 1.298c-.019.222.002.447.061.662.209.732.537 1.424.972 2.049a25.839 25.839 0 0 0 3.921 4.415 59.394 59.394 0 0 0 4.874 4.071 113.006 113.006 0 0 0 5.237 3.779l-1.652 3.1a62.56 62.56 0 0 1-11.877-6.808 28.589 28.589 0 0 1-5.298-5.016 12.588 12.588 0 0 1-2.111-3.771 8.601 8.601 0 0 1-.424-2.649v-1.104l.089-.883a69.042 69.042 0 0 1 2.887-13.546c.689-2.173 1.422-4.336 2.261-6.447.839-2.11 1.704-4.176 2.773-6.322l6.367 3.17Z"/>
  <path fill="#E58A7B" d="m120.901 230.759 6.243-3.161-1.616 6.852s-4.283 1.201-6.27-.883l1.643-2.808Zm11.956-2.04-1.66 5.669-5.669.062 1.616-6.852 5.713 1.121Z"/>
  <path fill="#DF5753" d="M141.67 157.968a17.634 17.634 0 0 0 1.387 3.532 1.438 1.438 0 0 1-1.404.451l.017-3.983Z"/>
  <path fill="#263238" d="M141.485 158.021c.366 0 .662-.455.662-1.016 0-.561-.296-1.015-.662-1.015-.366 0-.662.454-.662 1.015 0 .561.296 1.016.662 1.016Z"/>
  <path fill="#263238" d="m141.291 156.025 1.342-.38s-.654 1.042-1.342.38Z"/>
  <path fill="#E58A7B" d="M124.424 164.45c.804 4.106 1.607 11.638-1.272 14.385 0 0 1.131 4.168 8.769 4.168 8.398 0 4.009-4.168 4.009-4.168-4.583-1.095-4.468-4.495-3.664-7.692l-7.842-6.693Z"/>
  <path fill="#E58A7B" d="M122.19 155.089c.424 6.862.459 9.776 3.921 13.299 5.219 5.298 13.555 3.285 15.188-3.532 1.475-6.182.539-16.355-6.181-19.083a9.373 9.373 0 0 0-9.055 1.063 9.378 9.378 0 0 0-3.873 8.253Z"/>
  <path fill="#263238" d="M122.87 147.371c-3.444 1.254-8.036.318-6.235 10.941 1.908 11.251-1.024 14.951-1.024 14.951s13.061 2.781 26.395-.168c0 0-4.071-7.118-2.932-12.363 1.457-6.623.309-9.069.309-9.069s-11.674-6.058-16.513-4.292Z"/>
  <path fill="#E58A7B" d="M137.44 158.666a6.903 6.903 0 0 0 1.078 3.682c.936 1.43 2.04.883 2.313-.636.248-1.333.062-3.691-1.13-4.61-1.192-.918-2.243-.017-2.261 1.564Z"/>
  <path fill="#263238" d="M119.876 148.528c-.989-2.782 3.727-7.065 13.705-5.298 9.979 1.766 10.412 10.075 10.412 10.075l-2.014-2.402.089 2.526-10.253 1.969-11.939-6.87Z"/>
  <path fill="#4CAF4F" d="M120.724 179.303a1.565 1.565 0 0 1 1.28-1.766c3.109-.513 10.173-1.555 13.723-1.06 2.649.371 3.338 1.907 3.453 3.17a1.554 1.554 0 0 1-1.634 1.678l-15.347-.689a1.568 1.568 0 0 1-1.475-1.333Z"/>
  <path fill="#000" d="M120.724 179.303a1.565 1.565 0 0 1 1.28-1.766c3.109-.513 10.173-1.555 13.723-1.06 2.649.371 3.338 1.907 3.453 3.17a1.554 1.554 0 0 1-1.634 1.678l-15.347-.689a1.568 1.568 0 0 1-1.475-1.333Z" opacity=".6"/>
  <path fill="#E58A7B" d="m129.599 333.574 5.696 3.956 9.528-12.919-5.696-3.947-9.528 12.91Zm-13.282-.256 6.014 3.427 8.433-13.661-6.013-3.427-8.434 13.661Z"/>
  <path fill="#CF6F64" d="m144.814 324.611-4.91 6.659-5.696-3.948 4.91-6.658 5.696 3.947Zm-20.072-4.954 6.022 3.435-4.344 7.038-6.023-3.435 4.345-7.038Z"/>
  <path fill="#4CAF4F" d="M134.403 222.432s22.235 28.019 18.058 54.82c-3.364 21.644-22.88 50.953-22.88 50.953l-9.175-4.556a299.585 299.585 0 0 0 16.513-40.127 29.661 29.661 0 0 0-3.532-25.697c-11.268-16.452-29.318-6.658-17.176-35.393h18.192Z"/>
  <path fill="#000" d="M134.403 222.432s22.235 28.019 18.058 54.82c-3.364 21.644-22.88 50.953-22.88 50.953l-9.175-4.556a299.585 299.585 0 0 0 16.513-40.127 29.661 29.661 0 0 0-3.532-25.697c-11.268-16.452-29.318-6.658-17.176-35.393h18.192Z" opacity=".6"/>
  <path fill="#000" d="m145.309 240.429-3.233-3.215c0 .256 6.261 38.908 8.019 49.77a65.761 65.761 0 0 0 2.375-9.714c2.067-13.149-2.252-26.58-7.161-36.841Z" opacity=".4"/>
  <path fill="#4CAF4F" d="M144.328 222.432s26.775 35.216 27.534 56.33c.627 17.662-29.141 51.881-29.141 51.881l-8.654-5.599s17.423-24.302 21.812-44.153c-1.696-19.675-37.548-58.459-37.548-58.459h25.997Z"/>
  <path fill="#000" d="M144.328 222.432s26.775 35.216 27.534 56.33c.627 17.662-29.141 51.881-29.141 51.881l-8.654-5.599s17.423-24.302 21.812-44.153c-1.696-19.675-37.548-58.459-37.548-58.459h25.997Z" opacity=".6"/>
  <path fill="#4CAF4F" d="M111.204 180.407c-2.861.68-5.607 11.082-5.607 11.082l11.188 7.471s3.727-8.23 2.42-11.833c-1.351-3.753-4.406-7.577-8.001-6.72Z"/>
  <path fill="#000" d="m113.394 187.109-.777 9.069 4.16 2.791a37.319 37.319 0 0 0 2.534-8.072l-5.917-3.788Z" opacity=".2"/>
  <path fill="#4CAF4F" d="M147.64 180.61s3.302 1.156-3.312 41.813h-28.134c.477-11.48.485-18.545-4.99-42.016a83.165 83.165 0 0 1 11.948-1.572 89.337 89.337 0 0 1 12.778 0c5.493.503 11.71 1.775 11.71 1.775Z"/>
  <path fill="#E58A7B" d="M150.501 187.109c.636 1.766 1.307 3.665 2.013 5.493.707 1.828 1.378 3.709 2.093 5.563l2.164 5.546.547 1.386.283.689.132.344v.053a1.814 1.814 0 0 0-.618-.547 2.514 2.514 0 0 0-1.148-.345 2.306 2.306 0 0 0-.98.186c-.406.185-.406.265-.398.256.074-.059.139-.127.195-.203.489-.642.912-1.331 1.263-2.058.415-.812.812-1.678 1.209-2.552.777-1.766 1.493-3.594 2.208-5.44a193.1 193.1 0 0 0 2.058-5.589l2.013-5.634 3.4.883c-.671 4.027-1.537 7.947-2.579 11.939a79.59 79.59 0 0 1-1.766 5.943 44.917 44.917 0 0 1-1.13 3.002 19.072 19.072 0 0 1-1.625 3.162 8.264 8.264 0 0 1-.777.953 4.8 4.8 0 0 1-1.607 1.14 3.97 3.97 0 0 1-1.714.317 3.884 3.884 0 0 1-1.863-.556 4.749 4.749 0 0 1-1.607-1.669 9.252 9.252 0 0 1-.327-.627l-.168-.335-.335-.689-.671-1.369c-.883-1.837-1.766-3.691-2.535-5.554-.768-1.864-1.58-3.753-2.34-5.652a81.41 81.41 0 0 1-2.084-5.846l6.694-2.19Z"/>
  <path fill="#4CAF4F" d="M147.64 180.61c3.382.803 7.188 10.8 7.188 10.8l-10.058 8.556s-6.508-10.897-5.193-14.491c1.369-3.744 3.647-5.916 8.063-4.865Z"/>
  <path fill="#E58A7B" d="m165.133 181.095 3.533-2.949 2.455 3.824-1.811 3.187s-2.879 2.65-5.422 1.299a4.576 4.576 0 0 1-.276-2.889 4.573 4.573 0 0 1 1.521-2.472Z"/>
  <path fill="#E58A7B" d="m175.041 178.155-.265.962-5.589.936-.548-1.907 6.402.009Z"/>
  <path fill="#4CAF4F" d="m143.41 331.093-10.085-6.517 1.811-3.144 11.329 6.968-3.055 2.693Z"/>
  <path fill="#263238" d="M126.278 336.285a6.068 6.068 0 0 1-2.49-.883.16.16 0 0 1-.107-.15.16.16 0 0 1 .107-.15c.274-.088 2.649-.821 3.338-.256a.565.565 0 0 1 .194.539.934.934 0 0 1-.503.759c-.165.09-.35.139-.539.141Zm-1.986-.971c1.103.565 1.986.768 2.41.556a.619.619 0 0 0 .318-.512c0-.141 0-.203-.079-.238-.371-.301-1.696-.071-2.667.194h.018Z"/>
  <path fill="#263238" d="M123.85 335.464a.18.18 0 0 1-.124-.053.168.168 0 0 1 0-.159c0-.079.574-1.996 1.475-2.428a.876.876 0 0 1 .733 0 .58.58 0 0 1 .406.591c-.062.795-1.678 1.89-2.419 2.076l-.071-.027Zm1.713-2.411a.605.605 0 0 0-.247.062c-.548.265-.998 1.298-1.219 1.925.777-.327 1.846-1.192 1.881-1.678 0-.079 0-.176-.203-.265a.661.661 0 0 0-.212-.07v.026Zm13.317 7.047c-.998 0-2.385-1.28-3.144-2.066a.163.163 0 0 1-.03-.093c0-.033.011-.066.03-.093a.186.186 0 0 1 .168-.088c.353 0 3.417.459 3.85 1.325a.5.5 0 0 1 0 .512.878.878 0 0 1-.698.494l-.176.009Zm-2.561-1.943c1.112 1.078 2.093 1.678 2.649 1.608a.605.605 0 0 0 .459-.327.182.182 0 0 0 0-.203c-.229-.477-1.863-.883-3.108-1.078Z"/>
  <path fill="#263238" d="M136.416 338.113a2.87 2.87 0 0 1-.592-.044.156.156 0 0 1-.123-.097.189.189 0 0 1 0-.168c.053-.062 1.245-1.501 2.375-1.598.32-.025.637.076.883.282.345.301.327.566.239.733-.221.601-1.749.892-2.782.892Zm-.23-.326c.989.053 2.57-.274 2.773-.707 0 0 .071-.141-.159-.335a.867.867 0 0 0-.671-.212 3.872 3.872 0 0 0-1.943 1.262v-.008Z"/>
  <path fill="#4CAF4F" d="m124.088 334.51-7.488-2.119a.547.547 0 0 0-.662.309l-2.526 5.678a1.11 1.11 0 0 0 .32 1.277c.121.1.262.174.413.216 2.649.688 3.921.883 7.215 1.828 2.031.565 4.927 1.616 7.727 2.41 2.799.795 3.735-1.934 2.649-2.516-4.91-2.597-5.299-4.416-6.641-6.359a1.822 1.822 0 0 0-1.007-.724Z"/>
  <path fill="#4CAF4F" d="m135.939 337.001-6.393-4.416a.549.549 0 0 0-.724.071l-4.239 4.557a1.105 1.105 0 0 0 .212 1.642c2.252 1.51 3.417 2.119 6.234 4.071 1.766 1.201 5.184 3.868 7.568 5.528 2.384 1.66 4.159-.618 3.312-1.519-3.798-4.053-4.628-6.596-5.255-8.901a1.823 1.823 0 0 0-.715-1.033Zm-5.183-8.213-11.524-5.731 1.192-3.126 12.31 6.04-1.978 2.817ZM115.77 220.771l-.971 2.544c-.098.194.132.397.459.397h29.212c.256 0 .468-.124.485-.282l.247-2.526c0-.168-.203-.318-.476-.318h-28.497a.542.542 0 0 0-.459.185Z"/>
  <path fill="#fff" d="m115.77 220.771-.971 2.544c-.098.194.132.397.459.397h29.212c.256 0 .468-.124.485-.282l.247-2.526c0-.168-.203-.318-.476-.318h-28.497a.542.542 0 0 0-.459.185Z" opacity=".4"/>
  <path fill="#4CAF4F" d="M120.371 223.959h-.769c-.15 0-.264-.079-.256-.176l.362-3.276c0-.089.142-.168.292-.168h.768c.15 0 .265.079.256.168l-.362 3.276c-.009.097-.141.176-.291.176Zm18.014 0h-.759c-.15 0-.265-.079-.256-.176l.353-3.276c0-.089.15-.168.3-.168h.76c.15 0 .273.079.256.168l-.353 3.276c-.045.097-.142.176-.301.176Z"/>
  <path fill="#F5F5F5" d="M119.7 373.507c13.065 0 23.657-.767 23.657-1.714 0-.946-10.592-1.713-23.657-1.713-13.066 0-23.658.767-23.658 1.713 0 .947 10.592 1.714 23.658 1.714Z" style="mix-blend-mode:multiply"/>
  <path fill="#E0E0E0" d="M134.111 369.374c-4.186-1.219-8.83-2.782-11.639-4.416-.079-.053-.167-.079-.247-.123v-18.951h8.469a2.523 2.523 0 0 0 1.688-4.253 2.52 2.52 0 0 0-1.688-.789h-8.425V254.46h-5.086v86.382h-8.416a2.525 2.525 0 1 0 0 5.042h8.416v18.924c-.08 0-.159.071-.239.124-2.852 1.66-7.462 3.223-11.647 4.415a1.24 1.24 0 0 0-.866 1.358 1.234 1.234 0 0 0 1.21 1.062h28.126a1.237 1.237 0 0 0 .344-2.393Z"/>
  <path fill="#4CAF4F" d="M135.409 245.665h-31.401a4.574 4.574 0 0 0-4.575 4.574v9.334a4.574 4.574 0 0 0 4.575 4.575h31.401a4.575 4.575 0 0 0 4.575-4.575v-9.334a4.574 4.574 0 0 0-4.575-4.574Zm-31.693 18.491v1.608c0 1.324 1.439 2.402 3.206 2.402h25.609c1.766 0 3.205-1.078 3.205-2.402v-1.608h-32.02Z"/>
  <path fill="#fff" d="M103.716 264.156v1.608c0 1.324 1.439 2.402 3.206 2.402h25.609c1.766 0 3.205-1.078 3.205-2.402v-1.608h-32.02Z" opacity=".3"/>
</svg>
